<?xml version="1.0" encoding="UTF-8"?>
<svg width="74px" height="74px" viewBox="0 0 74 74" version="1.1" xmlns="http://www.w3.org/2000/svg" xmlns:xlink="http://www.w3.org/1999/xlink">
    <title>画板备份 9</title>
    <defs>
        <linearGradient x1="50%" y1="0%" x2="50%" y2="100%" id="linearGradient-1">
            <stop stop-color="#F74A74" offset="0%"></stop>
            <stop stop-color="#FF698E" offset="100%"></stop>
        </linearGradient>
        <linearGradient x1="50%" y1="0%" x2="50%" y2="100%" id="linearGradient-2">
            <stop stop-color="#EEA338" offset="0%"></stop>
            <stop stop-color="#F2C449" offset="100%"></stop>
        </linearGradient>
        <linearGradient x1="50%" y1="0%" x2="50%" y2="100%" id="linearGradient-3">
            <stop stop-color="#06EC6B" offset="0%"></stop>
            <stop stop-color="#0AE0A3" offset="100%"></stop>
        </linearGradient>
        <linearGradient x1="50%" y1="0%" x2="50%" y2="100%" id="linearGradient-4">
            <stop stop-color="#32F495" offset="0%"></stop>
            <stop stop-color="#13FDFF" offset="100%"></stop>
        </linearGradient>
        <linearGradient x1="50%" y1="0%" x2="50%" y2="100%" id="linearGradient-5">
            <stop stop-color="#24C6FF" offset="0%"></stop>
            <stop stop-color="#42E5FF" offset="100%"></stop>
        </linearGradient>
        <linearGradient x1="50%" y1="0%" x2="50%" y2="100%" id="linearGradient-6">
            <stop stop-color="#9355F9" offset="0%"></stop>
            <stop stop-color="#A776FF" offset="100%"></stop>
        </linearGradient>
        <linearGradient x1="50%" y1="0%" x2="50%" y2="100%" id="linearGradient-7">
            <stop stop-color="#DE42FF" offset="0%"></stop>
            <stop stop-color="#E89AFF" offset="100%"></stop>
        </linearGradient>
    </defs>
    <g id="画板备份-9" stroke="none" stroke-width="1" fill="none" fill-rule="evenodd">
        <g id="编组" transform="translate(-0.273608, 0.600000)">
            <path d="M40.8236085,5 C45.5254599,8.78668899 48.526252,12.6501999 49.8259849,16.5905328 C50.2292895,17.8132106 50.6148913,19.2024121 50.9827904,20.7581374 C52.3096574,26.368907 48.8368416,31.9929563 43.2260657,33.3197967 C42.4388084,33.5059679 41.6325793,33.6 40.8236085,33.6 C37.3407004,33.6 34.5172455,30.7765451 34.5172455,27.2936371 C34.5172455,26.1764246 34.8140382,25.0792653 35.3772831,24.114424 C36.3891541,22.3809828 37.2941214,20.6133381 38.0921851,18.8114897 C40.4024867,13.5953476 41.3129612,8.99151772 40.8236085,5 Z" id="三角形" fill="url(#linearGradient-1)" transform="translate(40.823608, 19.300000) rotate(572.000000) translate(-40.823608, -19.300000) "></path>
            <path d="M54.0290629,14.7785914 C58.7309142,18.5652804 61.7317064,22.4287914 63.0314392,26.3691243 C63.4347438,27.5918021 63.8203457,28.9810036 64.1882448,30.5367288 C65.5151118,36.1474984 62.0422959,41.7715477 56.43152,43.0983882 C55.6442627,43.2845594 54.8380336,43.3785914 54.0290629,43.3785914 C50.5461548,43.3785914 47.7226999,40.5551366 47.7226999,37.0722285 C47.7226999,35.955016 48.0194926,34.8578568 48.5827374,33.8930154 C49.5946084,32.1595743 50.4995758,30.3919295 51.2976394,28.5900811 C53.6079411,23.3739391 54.5184156,18.7701092 54.0290629,14.7785914 Z" id="三角形" fill="url(#linearGradient-2)" transform="translate(54.029063, 29.078591) rotate(623.000000) translate(-54.029063, -29.078591) "></path>
            <path d="M54.6173183,31.1998835 C59.3191697,34.9865725 62.3199618,38.8500834 63.6196947,42.7904163 C64.0229993,44.0130941 64.4086012,45.4022956 64.7765002,46.9580208 C66.1033673,52.5687905 62.6305514,58.1928397 57.0197755,59.5196802 C56.2325182,59.7058514 55.4262891,59.7998835 54.6173183,59.7998835 C51.1344103,59.7998835 48.3109554,56.9764286 48.3109554,53.4935205 C48.3109554,52.376308 48.607748,51.2791488 49.1709929,50.3143074 C50.1828639,48.5808663 51.0878313,46.8132215 51.8858949,45.0113731 C54.1961966,39.7952311 55.1066711,35.1914012 54.6173183,31.1998835 Z" id="三角形" fill="url(#linearGradient-3)" transform="translate(54.617318, 45.499883) rotate(675.000000) translate(-54.617318, -45.499883) "></path>
            <path d="M42.1454065,41.8983082 C46.8472579,45.6849972 49.8480501,49.5485082 51.1477829,53.4888411 C51.5510875,54.7115188 51.9366894,56.1007203 52.3045885,57.6564456 C53.6314555,63.2672152 50.1586396,68.8912645 44.5478637,70.218105 C43.7606064,70.4042761 42.9543773,70.4983082 42.1454065,70.4983082 C38.6624985,70.4983082 35.8390436,67.6748534 35.8390436,64.1919453 C35.8390436,63.0747328 36.1358363,61.9775736 36.6990811,61.0127322 C37.7109521,59.279291 38.6159195,57.5116463 39.4139831,55.7097979 C41.7242848,50.4936558 42.6347593,45.8898259 42.1454065,41.8983082 Z" id="三角形" fill="url(#linearGradient-4)" transform="translate(42.145407, 56.198308) rotate(726.000000) translate(-42.145407, -56.198308) "></path>
            <path d="M26.0049315,38.8177337 C30.7067828,42.6044227 33.707575,46.4679336 35.0073078,50.4082665 C35.4106124,51.6309443 35.7962143,53.0201458 36.1641134,54.575871 C37.4909804,60.1866407 34.0181645,65.8106899 28.4073886,67.1375304 C27.6201314,67.3237016 26.8139022,67.4177337 26.0049315,67.4177337 C22.5220234,67.4177337 19.6985685,64.5942788 19.6985685,61.1113707 C19.6985685,59.9941583 19.9953612,58.896999 20.558606,57.9321576 C21.570477,56.1987165 22.4754444,54.4310717 23.273508,52.6292233 C25.5838097,47.4130813 26.4942842,42.8092514 26.0049315,38.8177337 Z" id="三角形" fill="url(#linearGradient-5)" transform="translate(26.004931, 53.117734) rotate(778.000000) translate(-26.004931, -53.117734) "></path>
            <path d="M18.35,24.2778953 C23.0518514,28.0645843 26.0526435,31.9280952 27.3523764,35.8684281 C27.755681,37.0911059 28.1412828,38.4803074 28.5091819,40.0360327 C29.8360489,45.6468023 26.3632331,51.2708516 20.7524572,52.597692 C19.9651999,52.7838632 19.1589708,52.8778953 18.35,52.8778953 C14.8670919,52.8778953 12.0436371,50.0544404 12.0436371,46.5715323 C12.0436371,45.4543199 12.3404297,44.3571606 12.9036746,43.3923192 C13.9155456,41.6588781 14.8205129,39.8912333 15.6185766,38.0893849 C17.9288782,32.8732429 18.8393527,28.269413 18.35,24.2778953 Z" id="三角形" fill="url(#linearGradient-6)" transform="translate(18.350000, 38.577895) rotate(829.000000) translate(-18.350000, -38.577895) "></path>
            <path d="M24.9449317,9.22758792 C29.6467831,13.0142769 32.6475752,16.8777879 33.9473081,20.8181208 C34.3506127,22.0407985 34.7362145,23.4300001 35.1041136,24.9857253 C36.4309806,30.5964949 32.9581648,36.2205442 27.3473889,37.5473847 C26.5601316,37.7335559 25.7539025,37.8275879 24.9449317,37.8275879 C21.4620236,37.8275879 18.6385688,35.0041331 18.6385688,31.521225 C18.6385688,30.4040125 18.9353614,29.3068533 19.4986063,28.3420119 C20.5104773,26.6085708 21.4154446,24.840926 22.2135083,23.0390776 C24.52381,17.8229355 25.4342844,13.2191056 24.9449317,9.22758792 Z" id="三角形" fill="url(#linearGradient-7)" transform="translate(24.944932, 23.527588) rotate(881.000000) translate(-24.944932, -23.527588) "></path>
        </g>
    </g>
</svg>
